# xmcd
#
# Track frame offsets: 
#        150
#        18862
#        37597
#        53412
#
# Disc length: 857 seconds
#
# Revision: 1
# Processed by: cddbd v1.4PL0 Copyright (c) Steve Scherf et al.
# Submitted via: ExactAudioCopy v0.90b4
#
DISCID=1a035704
DTITLE=Steve Forbert - Born Too Late
DYEAR=1900
DGENRE=
TTITLE0=Born Too Late (LP Version)
TTITLE1=The American In Me (LP Version)
TTITLE2=Mexico (LP Version)
TTITLE3=Rock While I Can Rock (Live Acoustic Version)
EXTD=
EXTT0=
EXTT1=
EXTT2=
EXTT3=
PLAYORDER=
